<svg width="40" height="39" viewBox="0 0 40 39" fill="none" xmlns="http://www.w3.org/2000/svg">
<path d="M8.74983 18.75C8.74983 18.4185 8.88152 18.1005 9.11594 17.8661C9.35036 17.6317 9.6683 17.5 9.99983 17.5L26.9873 17.5L25.3623 15.8875C25.1269 15.6521 24.9947 15.3329 24.9947 15C24.9947 14.6671 25.1269 14.3479 25.3623 14.1125C25.5977 13.8771 25.9169 13.7449 26.2498 13.7449C26.5827 13.7449 26.9019 13.8771 27.1373 14.1125L30.8873 17.8625C31.0608 18.0383 31.1783 18.2615 31.225 18.504C31.2717 18.7465 31.2456 18.9973 31.1498 19.225C31.0561 19.4533 30.8968 19.6487 30.6922 19.7866C30.4875 19.9245 30.2466 19.9988 29.9998 20L9.99983 20C9.6683 20 9.35036 19.8683 9.11594 19.6339C8.88152 19.3994 8.74983 19.0815 8.74983 18.75Z" fill="#9E9D9B"/>
<path d="M25.0003 22.5C24.9993 22.3355 25.0308 22.1724 25.093 22.0201C25.1552 21.8678 25.2469 21.7293 25.3628 21.6125L29.1128 17.8625C29.3481 17.6271 29.6674 17.4949 30.0003 17.4949C30.1651 17.4949 30.3283 17.5273 30.4806 17.5904C30.6328 17.6535 30.7712 17.7459 30.8878 17.8625C31.0043 17.979 31.0968 18.1174 31.1598 18.2697C31.2229 18.422 31.2554 18.5852 31.2554 18.75C31.2554 19.0829 31.1231 19.4021 30.8878 19.6375L27.1378 23.3875C27.0216 23.5046 26.8833 23.5976 26.731 23.6611C26.5787 23.7246 26.4153 23.7572 26.2503 23.7572C26.0852 23.7572 25.9219 23.7246 25.7695 23.6611C25.6172 23.5976 25.479 23.5046 25.3628 23.3875C25.2469 23.2707 25.1552 23.1322 25.093 22.9799C25.0308 22.8276 24.9993 22.6645 25.0003 22.5Z" fill="#9E9D9B"/>
</svg>
