<svg width="24" height="24" viewBox="0 0 24 24" fill="none" xmlns="http://www.w3.org/2000/svg">
<path d="M15.0002 12.0001C15.0009 12.1317 14.9757 12.2621 14.926 12.384C14.8762 12.5058 14.8029 12.6166 14.7102 12.7101L10.7102 16.7101C10.5219 16.8984 10.2665 17.0042 10.0002 17.0042C9.73388 17.0042 9.47849 16.8984 9.29018 16.7101C9.10188 16.5218 8.99609 16.2664 8.99609 16.0001C8.99609 15.7338 9.10188 15.4784 9.29018 15.2901L12.5902 12.0001L9.30018 8.71006C9.13636 8.51876 9.05075 8.27268 9.06047 8.02101C9.07019 7.76933 9.17453 7.53059 9.35262 7.3525C9.53072 7.1744 9.76945 7.07007 10.0211 7.06035C10.2728 7.05063 10.5189 7.13623 10.7102 7.30006L14.7102 11.3001C14.8949 11.4863 14.9991 11.7377 15.0002 12.0001Z" fill="#424241"/>
</svg>
